<?xml version="1.0" standalone="no"?><!DOCTYPE svg PUBLIC "-//W3C//DTD SVG 1.1//EN" "http://www.w3.org/Graphics/SVG/1.1/DTD/svg11.dtd"><svg t="1559614677041" class="icon" style="" viewBox="0 0 1024 1024" version="1.1" xmlns="http://www.w3.org/2000/svg" p-id="7986" xmlns:xlink="http://www.w3.org/1999/xlink" width="32" height="32"><defs><style type="text/css"></style></defs><path d="M756.736 162.474667l-55.978667 0c-6.826667 0-13.994667 6.826667-13.994667 13.994667l0 111.957333-349.525333 0L337.237333 176.469333c0-6.826667-6.826667-13.994667-13.994667-13.994667L267.264 162.474667c-6.826667 0-13.994667 6.826667-13.994667 13.994667l0 671.061333c0 6.826667 6.826667 13.994667 13.994667 13.994667l55.978667 0c6.826667 0 13.994667-6.826667 13.994667-13.994667l0-125.952 349.525333 0 0 125.952c0 6.826667 6.826667 13.994667 13.994667 13.994667l55.978667 0c6.826667 0 13.994667-6.826667 13.994667-13.994667L770.730667 176.469333C770.730667 169.642667 763.562667 162.474667 756.736 162.474667zM309.248 833.536l-27.989333 0L281.258667 190.464l27.989333 0L309.248 833.536zM337.237333 316.416l349.525333 0 0 111.957333-349.525333 0L337.237333 316.416zM337.237333 456.021333l349.525333 0 0 111.957333L337.237333 567.978667 337.237333 456.021333zM337.237333 693.589333l0-97.962667 349.525333 0 0 97.962667L337.237333 693.589333zM742.741333 833.536l-27.989333 0L714.752 190.464l27.989333 0L742.741333 833.536z" p-id="7987"></path></svg>